<?xml version="1.0" encoding="UTF-8"?>
<!-- Generator: visioncortex VTracer 0.6.4 -->
<svg version="1.2" baseProfile="tiny-ps" xmlns="http://www.w3.org/2000/svg" viewBox="0 0 512 512" height="100%" width="100%">
<path d="M0,0 L512,0 L512,512 L0,512 Z " fill="#1D1C1C" transform="translate(0,0)"/>
<path d="M0,0 L352,0 L346,7 L324,29 L316,36 L305,47 L300,52 L254,98 L249,103 L195,157 L194,159 L201,160 L201,167 L186,167 L186,211 L177,211 L176,176 L160,192 L159,192 L159,159 L156,160 L156,197 L152,206 L144,211 L139,213 L132,221 L127,226 L122,230 L117,236 L115,236 L114,239 L111,242 L109,242 L109,244 L101,251 L98,254 L102,255 L102,306 L94,306 L93,268 L78,306 L72,306 L65,290 L65,288 L58,293 L57,269 L56,306 L46,306 L16,336 L9,344 L1,351 L0,351 Z " fill="#80A995" transform="translate(0,0)"/>
<path d="M0,0 L243,0 L237,7 L86,158 L95,159 L103,179 L110,199 L113,206 L113,209 L110,209 L106,199 L102,188 L97,175 L92,161 L82,160 L80,164 L1,243 L0,243 Z " fill="#1C1C1C" transform="translate(0,0)"/>
<path d="M0,0 L17,0 L25,5 L29,10 L32,16 L32,32 L28,42 L20,49 L15,51 L0,51 L-8,46 L-13,40 L-16,34 L-16,19 L-13,11 L-6,3 Z " fill="#F5F5F4" transform="translate(220,160)"/>
<path d="M0,0 L15,0 L23,4 L30,12 L32,18 L32,31 L28,41 L22,48 L15,51 L-1,51 L-9,46 L-13,41 L-16,34 L-16,17 L-12,9 L-4,2 Z " fill="#F6F6F5" transform="translate(459,255)"/>
<path d="M0,0 L24,0 L34,4 L40,11 L42,15 L42,30 L39,38 L34,44 L24,49 L20,50 L0,50 Z " fill="#F7F7F6" transform="translate(357,256)"/>
<path d="M0,0 L13,0 L22,23 L27,36 L28,37 L39,9 L43,0 L55,0 L55,51 L46,51 L45,14 L31,50 L30,51 L25,51 L19,38 L12,20 L9,12 L8,51 L0,51 Z " fill="#EEEEED" transform="translate(261,160)"/>
<path d="M0,0 L12,0 L16,9 L22,25 L26,34 L26,37 L28,37 L29,32 L37,12 L40,4 L42,4 L42,0 L54,0 L54,50 L46,50 L45,12 L30,50 L24,50 L17,34 L17,32 L10,37 L9,13 L8,50 L0,50 Z " fill="#F5F5F3" transform="translate(48,256)"/>
<path d="M0,0 L10,0 L15,12 L19,23 L23,35 L28,47 L28,51 L19,51 L15,39 L-5,39 L-9,51 L-19,51 L-19,48 L-17,48 L-16,43 L-7,18 L-3,8 Z " fill="#F5F7F2" transform="translate(82,160)"/>
<path d="M0,0 L10,0 L20,26 L28,47 L28,51 L19,51 L15,39 L-6,38 L-8,47 L-9,51 L-18,51 L-17,46 L-10,26 L-3,7 Z " fill="#F1F1F0" transform="translate(341,160)"/>
<path d="M0,0 L10,0 L16,4 L19,8 L20,12 L20,25 L16,33 L10,37 L-1,37 L-8,31 L-11,24 L-11,14 L-8,7 L-4,2 Z " fill="#1E1E1E" transform="translate(462,262)"/>
<path d="M0,0 L11,0 L18,6 L20,10 L20,26 L17,32 L12,36 L9,37 L0,37 L-6,33 L-9,28 L-10,24 L-10,11 L-5,3 Z " fill="#1D1D1D" transform="translate(223,167)"/>
<path d="M0,0 L8,0 L9,34 L12,41 L15,43 L24,43 L29,38 L30,35 L31,0 L39,0 L39,37 L35,46 L27,51 L12,51 L4,46 L0,38 Z " fill="#FAFAF8" transform="translate(117,160)"/>
<path d="M0,0 L8,0 L9,33 L12,40 L14,42 L24,42 L29,37 L30,35 L31,0 L39,0 L39,37 L35,45 L29,49 L26,50 L11,50 L5,46 L0,38 Z " fill="#FAFAF9" transform="translate(114,256)"/>
<path d="M0,0 L28,0 L28,8 L9,8 L9,22 L26,22 L26,29 L9,29 L9,44 L29,44 L29,51 L0,51 Z " fill="#ECEDEC" transform="translate(408,255)"/>
<path d="M0,0 L9,0 L13,10 L18,25 L22,38 L23,40 L32,13 L36,0 L45,0 L42,10 L29,46 L27,51 L18,51 L15,45 L5,15 L0,2 Z " fill="#F3F3F2" transform="translate(284,255)"/>
<path d="M0,0 L14,0 L20,3 L25,9 L25,24 L22,30 L17,34 L11,36 L0,36 Z " fill="#1E1D1D" transform="translate(365,263)"/>
<path d="M0,0 L16,0 L18,1 L18,9 L14,8 L0,8 L-2,10 L-2,16 L-1,19 L5,21 L15,27 L20,33 L20,41 L16,48 L9,51 L-7,51 L-12,49 L-12,41 L-7,43 L-4,44 L6,44 L10,41 L10,35 L2,30 L-9,23 L-12,18 L-12,8 L-4,1 Z " fill="#F4F4F4" transform="translate(175,255)"/>
<path d="M0,0 L17,0 L20,1 L20,9 L14,8 L3,8 L-3,12 L-5,12 L-7,17 L-8,19 L-8,32 L-5,38 L1,43 L15,43 L20,42 L20,49 L12,52 L0,52 L-8,48 L-13,43 L-17,35 L-18,32 L-18,19 L-13,9 L-6,3 Z " fill="#F3F3F2" transform="translate(240,255)"/>
<path d="M0,0 L19,0 L21,1 L21,9 L16,8 L3,8 L-3,12 L-7,19 L-7,33 L-1,41 L3,43 L16,43 L21,41 L21,49 L15,51 L-1,51 L-9,46 L-14,40 L-17,32 L-17,20 L-13,10 L-4,2 Z " fill="#F6F6F5" transform="translate(448,160)"/>
<path d="M0,0 L36,0 L36,6 L22,6 L22,49 L14,49 L14,6 L0,6 Z " fill="#FBFBFB" transform="translate(369,161)"/>
<path d="M0,0 L36,0 L36,6 L22,6 L22,49 L14,49 L14,6 L0,6 Z " fill="#FCFCFC" transform="translate(164,161)"/>
<path d="M0,0 L9,0 L9,51 L0,51 Z " fill="#EDEDED" transform="translate(204,255)"/>
<path d="M0,0 L9,0 L9,51 L0,51 Z " fill="#EEEEEE" transform="translate(413,160)"/>
<path d="M0,0 L2,1 L-11,14 L-17,21 L-25,28 L-32,36 L-37,40 L-43,47 L-51,54 L-58,62 L-68,72 L-76,79 L-83,87 L-90,93 L-97,101 L-138,142 L-143,146 L-150,154 L-152,156 L-146,157 L-146,163 L-148,159 L-158,159 L-152,152 Z " fill="#4BB392" transform="translate(243,0)"/>
<path d="M0,0 L12,0 L12,3 L15,2 L15,10 L29,10 L30,16 L30,52 L38,52 L38,53 L29,53 L28,18 L12,34 L11,34 L11,1 L0,2 L0,37 L-2,35 L-2,3 Z " fill="#81BE6F" transform="translate(148,158)"/>
<path d="M0,0 L8,0 L8,50 L0,50 Z " fill="#FBFBFB" transform="translate(336,256)"/>
<path d="M0,0 L12,0 L16,8 L22,24 L29,19 L35,12 L36,14 L26,39 L24,39 L19,27 L13,11 L10,1 L0,1 Z " fill="#242120" transform="translate(50,254)"/>
<path d="M0,0 L1,2 L-2,10 L-6,10 L-15,19 L-23,26 L-53,56 L-60,64 L-74,78 L-80,82 L-78,78 Z " fill="#BFB84F" transform="translate(80,163)"/>
<path d="M0,0 L2,1 L-11,14 L-17,21 L-25,28 L-32,36 L-37,40 L-43,47 L-51,54 L-58,62 L-68,72 L-76,79 L-79,81 L-77,77 Z " fill="#4397B3" transform="translate(243,0)"/>
<path d="M0,0 L3,3 L8,17 L8,21 L-7,21 L-4,10 Z " fill="#232323" transform="translate(345,170)"/>
<path d="M0,0 L2,0 L5,10 L8,18 L8,22 L-6,22 L-5,15 Z " fill="#98C666" transform="translate(86,169)"/>
<path d="M0,0 L8,0 L9,36 L12,41 L22,43 L21,45 L12,45 L7,40 L5,35 L5,1 L0,1 Z " fill="#242921" transform="translate(120,159)"/>
<path d="M0,0 L0,3 L-12,16 L-42,46 L-43,43 L-36,36 L-29,30 L-22,22 Z " fill="#2E211D" transform="translate(43,308)"/>
<path d="M0,0 L8,0 L9,32 L10,34 L7,34 L7,39 L5,39 L5,1 L0,1 Z " fill="#252A22" transform="translate(151,159)"/>
<path d="M0,0 L9,0 L10,1 L10,51 L8,51 L8,2 L1,2 Z " fill="#0A0A0A" transform="translate(414,158)"/>
<path d="M0,0 L12,0 L12,50 L10,51 L9,2 L0,1 Z " fill="#080807" transform="translate(93,254)"/>
<path d="M0,0 L2,3 L5,6 L18,13 L23,19 L24,21 L24,31 L22,32 L21,22 L16,16 L1,8 L-1,5 Z " fill="#0E0E0D" transform="translate(173,266)"/>
<path d="M0,0 L1,2 L-2,10 L-6,10 L-15,19 L-23,26 L-36,39 L-38,38 Z " fill="#8AB85F" transform="translate(80,163)"/>
<path d="M0,0 L3,1 L-7,11 L-12,15 L-19,23 L-21,25 L-15,26 L-15,32 L-17,28 L-27,28 L-21,21 Z " fill="#6AB66B" transform="translate(112,131)"/>
<path d="M0,0 L38,0 L39,1 L39,8 L37,8 L37,2 L1,2 Z " fill="#0D0D0D" transform="translate(369,158)"/>
<path d="M0,0 L12,0 L16,8 L21,21 L21,26 L18,23 L10,3 L10,1 L0,1 Z " fill="#1F1911" transform="translate(50,254)"/>
<path d="M0,0 L2,1 L-11,14 L-17,21 L-25,28 L-32,36 L-34,36 L-32,32 Z " fill="#4E6FD7" transform="translate(243,0)"/>
<path d="M0,0 L2,0 L1,9 L-2,16 L-3,20 L8,20 L8,22 L-6,22 L-5,15 Z " fill="#2C3324" transform="translate(86,169)"/>
<path d="M0,0 L0,3 Z M-2,3 L-2,6 L-17,21 L-25,28 L-29,32 L-31,31 L-4,4 Z " fill="#1F3632" transform="translate(254,97)"/>
<path d="M0,0 L2,1 L3,8 L2,35 L0,36 Z " fill="#0B0B0C" transform="translate(270,174)"/>
<path d="M0,0 L2,2 L2,46 L-5,51 L-4,47 L0,43 Z " fill="#F0B867" transform="translate(46,259)"/>
<path d="M0,0 L2,4 L7,16 L0,21 Z " fill="#E89E47" transform="translate(58,272)"/>
<path d="M0,0 L12,0 L16,6 L21,19 L23,23 L26,24 L22,27 L17,15 L12,3 L0,2 Z " fill="#DBB24A" transform="translate(50,252)"/>
<path d="M0,0 L14,0 L19,13 L19,17 L17,17 L12,5 L12,2 L2,2 Z " fill="#101010" transform="translate(262,158)"/>
<path d="M0,0 L0,3 L-5,8 L-16,20 L-23,26 L-22,22 Z " fill="#47AF9E" transform="translate(163,80)"/>
<path d="M0,0 L3,3 L9,18 L10,24 L7,23 L0,4 Z " fill="#0C0C0B" transform="translate(358,176)"/>
<path d="M0,0 L5,2 L8,8 L9,13 L9,26 L7,29 L6,11 L1,3 Z " fill="#161616" transform="translate(392,260)"/>
<path d="M0,0 L9,0 L15,15 L15,17 L12,17 L7,4 L7,2 L0,2 Z " fill="#0D0E0D" transform="translate(344,158)"/>
<path d="M0,0 L9,0 L9,8 L7,9 L7,2 L-28,2 L-28,1 Z " fill="#0B0C0B" transform="translate(194,158)"/>
<path d="M0,0 L2,1 L1,5 L1,14 L4,23 L0,22 L-2,16 L-2,3 Z " fill="#121212" transform="translate(215,175)"/>
<path d="M0,0 L2,1 L-17,20 L-19,19 L-15,14 L-9,9 L-8,7 L-6,7 L-4,3 Z " fill="#F68541" transform="translate(39,310)"/>
<path d="M0,0 L1,0 L1,36 L0,36 L-1,8 L-2,8 L-1,1 Z " fill="#131213" transform="translate(92,270)"/>
<path d="M0,0 L0,3 L-12,16 L-16,17 L-10,10 Z " fill="#3C281F" transform="translate(43,308)"/>
<path d="M0,0 L2,4 L6,7 L14,8 L13,10 L3,10 L-1,6 Z " fill="#151515" transform="translate(125,289)"/>
<path d="M0,0 L2,1 L-14,17 L-16,20 L-19,19 Z " fill="#ABB555" transform="translate(41,202)"/>
<path d="M0,0 L1,0 L6,17 L6,20 L4,20 L-1,5 Z " fill="#0A0A0A" transform="translate(297,260)"/>
<path d="M0,0 L3,1 L-7,11 L-12,15 L-14,14 Z " fill="#56B472" transform="translate(112,131)"/>
<path d="M0,0 L0,3 L-8,12 L-14,17 L-16,16 Z " fill="#4182C9" transform="translate(208,35)"/>
<path d="M0,0 L3,4 L4,13 L2,13 L-1,5 Z " fill="#0C0C0C" transform="translate(72,280)"/>
<path d="M0,0 L11,0 L11,1 L1,2 L-6,7 L-8,5 Z M-7,7 Z M-8,8 Z " fill="#363636" transform="translate(243,262)"/>
<path d="M0,0 L7,6 L9,10 L6,12 L1,4 Z " fill="#0E0E0E" transform="translate(244,162)"/>
<path d="M0,0 L3,3 L8,9 L11,11 L6,11 L0,4 Z " fill="#101010" transform="translate(453,287)"/>
<path d="M0,0 L10,0 L4,8 L3,5 L5,2 L0,1 Z " fill="#B3C767" transform="translate(130,211)"/>
<path d="M0,0 L8,1 L8,7 L6,3 L-4,3 L-3,1 Z " fill="#6DB062" transform="translate(89,156)"/>
<path d="M0,0 L0,3 L-5,8 L-10,13 L-13,13 Z " fill="#459FA1" transform="translate(163,80)"/>
<path d="M0,0 L2,2 L4,7 L4,10 L1,10 L-2,4 L-2,2 L0,2 Z " fill="#1F2419" transform="translate(109,199)"/>
<path d="M0,0 L3,3 L3,8 L-2,10 L-1,3 Z " fill="#181819" transform="translate(345,170)"/>
<path d="M0,0 L3,1 L-8,11 L-8,8 Z " fill="#CDB24A" transform="translate(9,234)"/>
<path d="M0,0 L3,0 L5,5 L5,8 L2,9 L0,5 Z " fill="#1C221A" transform="translate(98,174)"/>
<path d="M0,0 L2,1 L-7,11 L-8,8 Z M-9,11 Z " fill="#4593C0" transform="translate(191,52)"/>
<path d="M0,0 L1,3 L-6,10 L-9,9 Z " fill="#4FB381" transform="translate(122,121)"/>
<path d="M0,0 L0,3 L-5,9 L-9,12 L-11,11 Z " fill="#21353E" transform="translate(268,83)"/>
<path d="M0,0 L1,3 L-5,8 L-7,10 L-8,5 L-3,3 Z " fill="#41382E" transform="translate(77,274)"/>
<path d="M0,0 L17,0 L17,2 L19,3 L0,1 Z " fill="#070707" transform="translate(222,158)"/>
<path d="M0,0 L2,0 L0,8 L-1,11 L-3,11 L-1,1 Z " fill="#202317" transform="translate(77,198)"/>
<path d="M0,0 L2,0 L1,9 L-2,9 Z " fill="#373E31" transform="translate(86,169)"/>
<path d="M0,0 L10,0 L10,3 L13,2 L12,6 L9,6 L9,1 L0,2 Z " fill="#60AB66" transform="translate(150,158)"/>
<path d="M0,0 L4,1 L-3,8 L-3,5 L-2,1 Z " fill="#42A0CF" transform="translate(277,70)"/>
<path d="M0,0 L2,0 L5,6 L4,9 L1,6 Z " fill="#0A0A0A" transform="translate(367,201)"/>
<path d="M0,0 L3,0 L3,5 L-1,8 L-1,1 Z " fill="#7BCA79" transform="translate(160,163)"/>
<path d="M0,0 L2,0 L4,6 L1,7 L0,3 L-3,3 Z " fill="#302822" transform="translate(63,288)"/>
<path d="M0,0 L2,1 L4,8 L1,7 L0,11 Z " fill="#F8B458" transform="translate(59,276)"/>
<path d="M0,0 L3,4 L4,6 L7,7 L3,10 L0,3 Z " fill="#F2B450" transform="translate(69,269)"/>
<path d="M0,0 L2,0 L4,4 L3,9 L1,7 Z " fill="#0D0C0C" transform="translate(286,189)"/>
<path d="M0,0 L3,0 L4,8 L2,8 L0,3 Z " fill="#0E100C" transform="translate(105,193)"/>
<path d="M0,0 L2,4 L4,9 L0,8 L-1,2 Z " fill="#0C0C0C" transform="translate(215,189)"/>
<path d="M0,0 L2,3 L-5,8 L-4,4 Z " fill="#EE8C45" transform="translate(46,302)"/>
<path d="M0,0 L12,2 L12,3 L0,3 Z " fill="#101010" transform="translate(168,296)"/>
<path d="M0,0 L2,3 L3,9 L1,9 L-1,4 Z " fill="#080808" transform="translate(282,176)"/>
<path d="M0,0 L1,2 L-4,8 L-7,7 Z " fill="#283324" transform="translate(176,175)"/>
<path d="M0,0 L3,1 L-3,7 L-5,7 L-3,3 Z " fill="#477CDD" transform="translate(214,29)"/>
<path d="M0,0 L5,1 L3,7 L1,4 Z " fill="#2D2D2D" transform="translate(304,289)"/>
<path d="M0,0 L2,0 L4,4 L4,8 L2,8 L0,3 Z " fill="#090909" transform="translate(277,167)"/>
<path d="M0,0 L2,1 L-5,7 L-4,2 Z " fill="#96CF6D" transform="translate(164,185)"/>
<path d="M0,0 L2,3 L0,9 L-1,9 L-1,2 Z " fill="#2F2F2F" transform="translate(273,180)"/>
</svg>
