<?xml version="1.0" encoding="UTF-8"?>
<!-- Generator: visioncortex VTracer 0.6.4 -->
<svg version="1.2" baseProfile="tiny-ps" xmlns="http://www.w3.org/2000/svg" version="1.1" xmlns="http://www.w3.org/2000/svg" width="1088" height="960">
<path d="M0,0 L1088,0 L1088,960 L0,960 Z " fill="#1D1D1C" transform="translate(0,0)"/>
<path d="M0,0 L748,0 L742,7 L727,21 L720,29 L715,34 L708,41 L700,48 L687,61 L682,66 L677,72 L669,79 L664,84 L650,99 L642,106 L628,120 L623,125 L411,337 L352,337 L352,340 L426,340 L426,355 L395,355 L395,448 L377,448 L376,372 L340,408 L338,408 L338,337 L320,337 L320,340 L332,340 L332,414 L328,429 L321,439 L311,445 L304,448 L298,450 L210,538 L209,540 L198,540 L198,542 L217,542 L217,650 L199,650 L199,564 L194,579 L191,586 L186,598 L181,610 L175,626 L170,638 L166,650 L153,650 L148,638 L145,632 L142,624 L136,612 L124,624 L123,624 L122,576 L119,566 L118,650 L102,650 L100,648 L64,684 L60,689 L53,695 L49,700 L47,700 L46,703 L38,710 L31,718 L23,725 L17,732 L9,737 L7,739 L4,740 L1,743 L0,743 Z " fill="#7FA994" transform="translate(0,0)"/>
<path d="M0,0 L517,0 L511,7 L507,12 L499,19 L454,64 L449,69 L443,76 L435,83 L428,90 L423,95 L416,102 L411,107 L405,114 L397,121 L392,126 L332,186 L327,191 L300,218 L295,223 L238,280 L233,285 L216,302 L211,308 L203,315 L182,336 L201,337 L206,349 L214,370 L218,381 L225,401 L230,413 L236,432 L240,441 L240,444 L234,444 L226,424 L220,408 L213,388 L209,379 L206,372 L203,363 L200,353 L197,346 L195,341 L175,341 L174,344 L172,344 L170,348 L140,378 L135,383 L120,398 L115,403 L104,414 L99,419 L92,426 L87,431 L32,486 L27,491 L1,517 L0,517 Z " fill="#1C1C1C" transform="translate(0,0)"/>
<path d="M0,0 L26,0 L35,4 L45,10 L53,18 L55,24 L57,24 L60,30 L60,36 L62,36 L63,40 L63,69 L58,81 L53,90 L44,100 L31,108 L24,110 L0,110 L-11,106 L-21,100 L-29,92 L-36,80 L-39,73 L-40,64 L-40,44 L-36,30 L-34,28 L-31,21 L-22,11 L-14,5 L-3,1 Z " fill="#F5F5F5" transform="translate(473,339)"/>
<path d="M0,0 L17,0 L31,2 L34,5 L44,11 L52,19 L57,28 L61,41 L61,65 L56,82 L50,92 L40,102 L29,107 L21,110 L3,110 L-8,108 L-18,104 L-28,96 L-36,85 L-41,70 L-41,44 L-36,26 L-29,16 L-19,7 L-9,3 L-4,3 L-4,1 Z " fill="#F7F7F6" transform="translate(982,541)"/>
<path d="M0,0 L43,0 L58,3 L72,10 L81,17 L87,27 L90,37 L90,65 L86,76 L78,88 L68,97 L57,102 L54,102 L54,104 L40,107 L0,107 Z " fill="#F7F7F6" transform="translate(758,543)"/>
<path d="M0,0 L26,0 L32,17 L38,31 L41,41 L44,45 L52,68 L55,74 L57,81 L59,78 L63,66 L71,46 L75,38 L79,27 L84,18 L86,9 L89,2 L91,1 L114,1 L114,106 L98,106 L97,21 L92,36 L89,43 L84,55 L79,67 L73,83 L68,95 L64,107 L51,107 L46,95 L43,89 L40,81 L34,69 L22,81 L21,81 L20,33 L17,23 L16,107 L0,107 Z " fill="#F9F9F7" transform="translate(102,543)"/>
<path d="M0,0 L25,0 L25,108 L7,108 L7,21 L1,37 L-3,49 L-9,62 L-12,70 L-21,94 L-24,100 L-26,107 L-39,107 L-44,97 L-47,88 L-50,82 L-56,65 L-59,58 L-63,50 L-67,39 L-72,27 L-73,23 L-74,108 L-90,108 L-90,1 L-64,1 L-59,14 L-54,26 L-47,47 L-43,54 L-38,70 L-35,75 L-33,80 L-31,77 L-27,67 L-22,54 L-20,54 L-18,45 L-14,35 L-10,26 L-7,19 L-3,8 Z " fill="#F6F6F5" transform="translate(646,340)"/>
<path d="M0,0 L20,0 L22,2 L25,12 L28,20 L31,28 L34,38 L36,40 L39,48 L44,63 L47,71 L57,96 L60,105 L60,108 L41,108 L38,103 L32,85 L31,80 L-12,80 L-13,85 L-18,102 L-20,107 L-39,107 L-39,102 L-35,93 L-29,77 L-26,68 L-22,58 L-19,49 L-15,40 L-11,29 L-4,8 Z " fill="#F8F9F5" transform="translate(175,340)"/>
<path d="M0,0 L21,0 L27,16 L32,29 L36,40 L40,53 L44,60 L51,82 L54,87 L59,102 L59,106 L41,106 L38,99 L32,83 L32,79 L-11,80 L-17,98 L-20,106 L-39,106 L-38,102 L-33,86 L-30,81 L-26,67 L-22,58 L-16,40 L-11,28 L-5,12 Z " fill="#F7F7F6" transform="translate(725,341)"/>
<path d="M0,0 L16,0 L26,4 L34,12 L38,21 L41,31 L41,48 L39,57 L33,68 L24,76 L18,79 L-2,79 L-7,77 L-13,73 L-20,63 L-25,51 L-25,32 L-23,23 L-17,11 L-9,4 Z " fill="#1F1E1E" transform="translate(477,354)"/>
<path d="M0,0 L18,1 L19,69 L22,80 L28,89 L32,92 L39,93 L47,93 L56,90 L60,87 L62,81 L64,81 L65,75 L66,0 L84,0 L84,74 L80,89 L73,99 L63,105 L56,108 L51,109 L33,109 L20,105 L14,102 L7,94 L3,86 L3,83 L1,83 L0,80 Z " fill="#F8FAF6" transform="translate(248,340)"/>
<path d="M0,0 L14,0 L20,2 L29,8 L33,13 L36,18 L38,27 L38,53 L34,63 L27,72 L18,77 L14,79 L-4,79 L-15,72 L-21,64 L-25,56 L-27,51 L-27,30 L-24,19 L-18,10 L-10,3 Z " fill="#1E1D1D" transform="translate(986,557)"/>
<path d="M0,0 L18,0 L19,71 L22,80 L22,84 L26,86 L30,90 L36,92 L48,92 L58,87 L63,79 L65,72 L66,0 L83,0 L83,76 L81,83 L78,90 L74,96 L67,102 L65,102 L65,104 L59,107 L52,109 L32,109 L26,107 L16,103 L11,98 L6,92 L2,84 L0,76 Z " fill="#F7F7F7" transform="translate(242,543)"/>
<path d="M0,0 L58,0 L58,15 L18,15 L18,45 L55,45 L55,61 L18,61 L18,92 L60,92 L60,107 L0,107 Z " fill="#F5F5F5" transform="translate(868,543)"/>
<path d="M0,0 L20,0 L30,31 L44,75 L48,86 L61,44 L64,36 L70,18 L71,14 L73,14 L74,8 L77,0 L95,0 L93,9 L90,17 L84,34 L80,43 L74,62 L71,70 L67,81 L63,91 L58,107 L37,107 L33,94 L30,87 L27,77 L23,68 L17,49 L14,42 L6,18 L2,8 Z " fill="#F5F5F5" transform="translate(604,543)"/>
<path d="M0,0 L28,0 L40,5 L49,14 L53,23 L54,26 L54,47 L51,57 L49,57 L47,63 L40,70 L30,75 L22,77 L0,77 Z " fill="#201F1F" transform="translate(776,558)"/>
<path d="M0,0 L24,0 L34,2 L34,20 L29,18 L22,15 L2,15 L-5,17 L-10,22 L-10,32 L-6,38 L3,44 L12,48 L17,51 L21,52 L21,54 L25,56 L34,64 L38,72 L38,87 L35,94 L28,102 L14,108 L10,109 L-5,109 L-24,107 L-30,103 L-30,86 L-26,88 L-18,92 L-7,94 L5,94 L15,90 L18,85 L18,74 L10,68 L10,66 L0,63 L-2,62 L-2,60 L-8,58 L-19,51 L-27,42 L-30,35 L-30,21 L-27,14 L-19,6 L-14,3 L-8,1 Z " fill="#F7F7F6" transform="translate(376,542)"/>
<path d="M0,0 L24,0 L36,3 L38,4 L38,21 L25,17 L10,17 L-5,20 L-14,27 L-20,36 L-22,40 L-23,48 L-23,65 L-20,76 L-13,86 L-4,92 L3,94 L23,94 L34,90 L38,89 L38,104 L30,108 L21,110 L-2,110 L-7,108 L-15,106 L-23,102 L-32,93 L-35,90 L-38,83 L-42,73 L-43,69 L-43,45 L-40,36 L-37,27 L-30,18 L-23,11 L-11,4 Z " fill="#F6F6F5" transform="translate(515,541)"/>
<path d="M0,0 L26,0 L34,1 L38,4 L38,20 L30,19 L21,16 L5,16 L-5,20 L-13,26 L-19,33 L-24,47 L-24,63 L-20,76 L-18,82 L-14,84 L-7,90 L4,94 L22,94 L35,89 L38,89 L38,105 L29,108 L20,110 L-5,110 L-24,101 L-33,91 L-38,84 L-41,75 L-43,65 L-43,48 L-40,35 L-33,21 L-22,10 L-16,6 L-12,6 L-12,4 Z " fill="#F7F7F6" transform="translate(959,339)"/>
<path d="M0,0 L79,0 L79,15 L48,15 L48,108 L30,108 L30,15 L0,15 Z " fill="#F5F6F5" transform="translate(347,340)"/>
<path d="M0,0 L78,0 L78,15 L48,15 L48,107 L30,107 L30,14 L0,14 Z " fill="#F6F6F5" transform="translate(784,341)"/>
<path d="M0,0 L18,0 L18,107 L0,107 Z " fill="#F9F9F8" transform="translate(714,543)"/>
<path d="M0,0 L18,0 L18,107 L0,107 Z " fill="#F8F8F8" transform="translate(434,543)"/>
<path d="M0,0 L18,0 L18,107 L0,107 Z " fill="#F9F9F8" transform="translate(878,340)"/>
<path d="M0,0 L25,0 L27,2 L28,11 L30,11 L35,26 L38,31 L43,45 L45,54 L53,47 L76,24 L77,26 L72,37 L68,48 L62,61 L56,77 L53,85 L51,84 L47,72 L42,60 L37,46 L34,41 L29,26 L25,17 L20,3 L0,2 Z " fill="#161310" transform="translate(107,540)"/>
<path d="M0,0 L3,1 L-5,10 L-13,17 L-20,24 L-27,32 L-33,37 L-40,45 L-52,57 L-59,65 L-72,77 L-90,95 L-95,100 L-102,108 L-107,113 L-114,120 L-120,127 L-125,131 L-130,136 L-136,143 L-137,145 L-140,145 L-141,147 L-143,147 L-145,151 L-153,158 L-161,165 L-164,170 L-169,174 L-171,177 L-176,181 L-177,184 L-182,186 L-187,192 L-190,192 L-191,196 L-195,200 L-197,200 L-199,204 L-204,209 L-206,209 L-206,211 L-208,211 L-208,213 L-216,220 L-219,223 L-222,222 L-218,220 L-216,216 L-188,188 L-186,188 L-184,184 L-124,124 L-122,124 L-120,120 L-114,114 L-112,114 L-110,110 L-104,104 L-102,104 L-100,100 L-91,92 L-84,84 L-76,76 L-74,76 L-72,72 L-66,66 L-64,66 L-62,62 L-12,12 L-10,12 L-8,8 Z M-139,143 Z " fill="#4591C9" transform="translate(517,0)"/>
<path d="M0,0 L2,0 L8,12 L16,19 L25,23 L25,25 L13,31 L6,39 L2,48 L0,48 L-6,36 L-14,29 L-23,25 L-23,23 L-11,17 L-4,9 Z " fill="#8B8A8A" transform="translate(1031,880)"/>
<path d="M0,0 L2,1 L6,14 L9,22 L13,32 L16,43 L17,48 L-15,48 L-15,43 L-12,36 L-7,20 L-4,12 Z " fill="#222323" transform="translate(734,358)"/>
<path d="M0,0 L5,1 L13,20 L19,37 L22,41 L24,48 L28,49 L32,47 L34,43 L38,41 L40,34 L46,32 L50,30 L52,26 L56,20 L58,15 L59,19 L56,28 L52,30 L25,57 L23,57 L17,39 L11,26 L8,14 L6,14 L4,5 L3,4 L-22,3 L-22,5 L-2,5 L-2,6 L-27,6 L-27,112 L-30,112 L-65,147 L-69,152 L-77,158 L-80,158 L-79,155 L-77,155 L-75,151 L-69,149 L-66,144 L-61,138 L-59,137 L-56,132 L-52,130 L-50,126 L-45,123 L-42,115 L-37,113 L-35,107 L-33,107 L-33,109 L-30,107 L-29,4 L-26,1 Z " fill="#EFBC74" transform="translate(129,537)"/>
<path d="M0,0 L2,1 L8,21 L12,30 L16,43 L17,47 L-15,47 L-13,38 L-2,5 Z " fill="#94C262" transform="translate(184,359)"/>
<path d="M0,0 L20,0 L25,11 L33,32 L37,43 L44,63 L49,75 L55,94 L59,103 L59,106 L53,106 L45,86 L39,70 L32,50 L28,41 L25,34 L22,25 L19,15 L16,8 L15,2 L0,1 Z " fill="#141913" transform="translate(181,338)"/>
<path d="M0,0 L21,0 L27,16 L32,26 L35,37 L40,50 L44,60 L49,74 L53,84 L57,97 L61,105 L60,108 L54,106 L51,96 L46,86 L39,64 L34,54 L25,27 L22,20 L16,3 L0,2 Z " fill="#111111" transform="translate(729,337)"/>
<path d="M0,0 L18,0 L19,74 L22,82 L28,90 L32,92 L48,93 L48,95 L41,97 L33,97 L26,96 L19,90 L14,81 L13,76 L13,3 L0,3 Z " fill="#0E140D" transform="translate(254,337)"/>
<path d="M0,0 L13,0 L25,2 L36,7 L36,9 L41,11 L48,19 L51,22 L57,34 L59,44 L59,68 L57,75 L54,81 L52,81 L52,75 L53,73 L53,40 L51,40 L49,32 L48,28 L46,28 L41,20 L32,12 L20,6 L12,4 L-7,3 L-6,1 Z " fill="#0E0E0E" transform="translate(482,335)"/>
<path d="M0,0 L18,0 L19,1 L20,73 L24,84 L28,88 L34,91 L36,94 L26,94 L21,89 L18,87 L14,74 L14,2 L0,2 Z " fill="#0B0A0A" transform="translate(246,540)"/>
<path d="M0,0 L4,1 L6,11 L9,13 L9,15 L14,17 L22,21 L32,27 L38,29 L38,31 L42,32 L42,34 L44,34 L44,36 L46,36 L46,38 L48,38 L53,48 L54,52 L54,63 L51,70 L48,71 L47,51 L42,42 L31,33 L31,31 L26,30 L19,26 L11,23 L3,17 L-1,11 L-1,1 Z " fill="#121111" transform="translate(366,563)"/>
<path d="M0,0 L26,0 L27,6 L29,6 L31,12 L31,16 L33,16 L40,36 L44,46 L47,51 L52,66 L55,74 L55,83 L53,86 L48,74 L45,66 L41,54 L37,47 L31,29 L26,17 L21,4 L21,2 L0,2 Z " fill="#0E0E0E" transform="translate(560,337)"/>
<path d="M0,0 L45,0 L60,3 L72,10 L78,15 L80,16 L85,25 L88,32 L90,41 L90,63 L88,70 L86,70 L85,40 L81,28 L74,18 L61,10 L51,6 L35,3 L0,2 Z " fill="#141313" transform="translate(762,540)"/>
<path d="M0,0 L1,2 L-4,13 L-8,24 L-14,37 L-20,53 L-22,50 L-28,34 L-28,31 L-30,30 Z " fill="#201E1F" transform="translate(183,564)"/>
<path d="M0,0 L24,0 L25,1 L25,107 L21,108 L20,3 L0,2 Z " fill="#050505" transform="translate(651,337)"/>
<path d="M0,0 L17,0 L17,62 L16,83 L11,92 L8,94 L9,85 L11,76 L12,2 L0,2 Z " fill="#111210" transform="translate(320,338)"/>
<path d="M0,0 L13,1 L13,107 L9,108 L8,4 L-11,3 L-11,1 Z " fill="#030303" transform="translate(209,539)"/>
<path d="M0,0 L19,0 L22,6 L22,9 L24,9 L30,31 L33,38 L37,51 L39,59 L40,64 L42,64 L46,78 L45,91 L43,88 L27,39 L21,19 L16,4 L1,3 Z " fill="#0C0C0C" transform="translate(607,539)"/>
<path d="M0,0 L0,3 L-3,8 L-7,10 L-14,18 L-19,23 L-26,29 L-33,38 L-38,44 L-43,48 L-45,48 L-47,52 L-53,57 L-59,62 L-59,64 L-63,68 L-68,71 L-72,77 L-79,84 L-79,86 L-83,88 L-88,91 L-96,101 L-99,104 L-104,111 L-109,114 L-111,118 L-115,118 L-116,122 L-127,132 L-129,134 L-131,138 L-132,138 L-132,132 L-103,103 L-101,103 L-99,99 L-43,43 L-41,43 L-39,39 L-31,31 L-29,31 L-27,27 L-15,15 L-13,15 L-11,11 Z " fill="#9EAD55" transform="translate(132,385)"/>
<path d="M0,0 L19,1 L19,108 L15,108 L14,4 L0,3 Z " fill="#030303" transform="translate(438,539)"/>
<path d="M0,0 L19,0 L19,70 L16,87 L12,87 L12,80 L13,79 L14,3 L0,3 Z " fill="#090808" transform="translate(312,539)"/>
<path d="M0,0 L5,0 L5,88 L0,88 Z " fill="#040404" transform="translate(396,356)"/>
<path d="M0,0 L1,2 L-2,10 L-2,31 L0,40 L6,51 L11,54 L12,56 L20,60 L36,61 L35,64 L15,64 L10,62 L4,58 L-3,48 L-8,36 L-8,17 L-6,8 L-2,2 Z " fill="#121111" transform="translate(460,369)"/>
<path d="M0,0 L3,0 L3,20 L5,32 L7,34 L10,41 L15,46 L25,51 L32,53 L45,53 L53,52 L50,55 L45,57 L25,57 L17,54 L8,48 L1,38 L-2,27 L-2,10 Z " fill="#141414" transform="translate(493,579)"/>
<path d="M0,0 L18,0 L34,5 L34,7 L39,9 L44,14 L47,15 L51,23 L55,29 L59,46 L59,64 L57,69 L56,69 L55,51 L52,36 L45,22 L37,14 L25,7 L25,5 L11,4 L11,2 L-4,2 Z " fill="#131313" transform="translate(988,538)"/>
<path d="M0,0 L5,1 L13,20 L19,37 L22,41 L24,48 L28,49 L32,47 L34,43 L38,41 L40,34 L46,32 L50,30 L52,26 L56,20 L58,15 L59,19 L56,28 L52,30 L25,57 L23,57 L17,39 L11,26 L8,14 L6,14 L4,5 L3,4 L-22,3 L-22,5 L-2,5 L-2,6 L-23,6 L-24,2 L-23,1 Z " fill="#E0AA4B" transform="translate(129,537)"/>
<path d="M0,0 L19,0 L19,107 L16,107 L15,3 L0,2 Z " fill="#050505" transform="translate(881,337)"/>
<path d="M0,0 L19,0 L19,106 L16,107 L15,3 L0,2 Z " fill="#060605" transform="translate(717,540)"/>
<path d="M0,0 L0,3 L-3,7 L-5,7 L-6,10 L-8,11 L-11,17 L-13,17 L-15,21 L-23,28 L-31,35 L-34,40 L-39,44 L-41,47 L-46,51 L-47,54 L-52,56 L-57,62 L-60,62 L-61,66 L-65,70 L-67,70 L-69,74 L-74,79 L-76,79 L-76,81 L-78,81 L-78,83 L-86,90 L-89,93 L-92,92 L-88,90 L-86,86 L-58,58 L-56,58 L-54,54 Z " fill="#4296A9" transform="translate(387,130)"/>
<path d="M0,0 L2,2 L8,20 L11,24 L14,34 L1,47 L0,47 Z " fill="#E79F48" transform="translate(123,577)"/>
<path d="M0,0 L2,1 L2,10 L-1,20 L-4,28 L-9,43 L16,43 L17,47 L-15,47 L-13,38 L-2,5 Z " fill="#272B25" transform="translate(184,359)"/>
<path d="M0,0 L80,0 L80,15 L75,16 L74,4 L0,3 Z " fill="#101712" transform="translate(352,337)"/>
<path d="M0,0 L1,0 L2,5 L3,5 L4,18 L7,28 L12,37 L17,41 L17,43 L22,44 L35,48 L35,49 L48,50 L46,52 L28,52 L17,48 L6,39 L0,25 L-1,20 L-1,4 Z " fill="#292828" transform="translate(935,382)"/>
<path d="M0,0 L2,1 L4,9 L4,78 L0,79 Z " fill="#060505" transform="translate(573,366)"/>
<path d="M0,0 L2,2 L4,8 L4,78 L0,78 Z " fill="#0A0705" transform="translate(119,568)"/>
<path d="M0,0 L3,0 L3,72 L27,72 L27,74 L24,75 L0,75 Z " fill="#030202" transform="translate(777,559)"/>
<path d="M0,0 L3,0 L3,27 L44,27 L45,28 L45,43 L43,43 L43,31 L0,31 Z " fill="#1D1E1E" transform="translate(886,604)"/>
<path d="M0,0 L43,0 L42,3 L9,3 L6,6 L4,17 L-1,25 L-6,27 L-7,27 L-6,18 Z " fill="#ABC26E" transform="translate(163,420)"/>
<path d="M0,0 L3,1 L3,88 L0,89 Z " fill="#050404" transform="translate(833,356)"/>
<path d="M0,0 L3,1 L-5,10 L-13,17 L-20,24 L-27,32 L-33,37 L-40,45 L-52,57 L-59,65 L-68,73 L-69,71 L-66,66 L-64,66 L-62,62 L-12,12 L-10,12 L-8,8 Z M-70,73 Z " fill="#476CD1" transform="translate(517,0)"/>
<path d="M0,0 L26,0 L26,107 L8,107 L8,32 L9,32 L9,106 L25,106 L25,1 L0,2 L-2,9 L-3,5 L-2,1 Z " fill="#B2B4B3" transform="translate(191,543)"/>
<path d="M0,0 L2,0 L2,2 L6,0 L6,2 L8,2 L7,5 L5,5 L-30,40 L-34,45 L-42,51 L-45,51 L-44,48 L-42,48 L-40,44 L-34,42 L-31,37 L-26,31 L-24,30 L-21,25 L-17,23 L-15,19 L-10,16 L-7,8 L-2,6 Z " fill="#EB843D" transform="translate(94,644)"/>
<path d="M0,0 L80,0 L80,15 L76,15 L75,3 L0,2 Z " fill="#070606" transform="translate(787,337)"/>
<path d="M0,0 L3,3 L2,12 L2,73 L3,76 L5,78 L7,83 L8,86 L12,87 L12,89 L29,91 L33,90 L32,94 L14,93 L9,90 L2,81 L0,74 Z " fill="#86AA5D" transform="translate(272,337)"/>
<path d="M0,0 L25,0 L36,3 L36,21 L32,21 L31,7 L23,4 L-4,3 L-4,1 Z " fill="#070706" transform="translate(379,538)"/>
<path d="M0,0 L16,0 L31,3 L34,5 L34,22 L31,22 L31,7 L26,6 L13,4 L-8,3 L-6,1 Z " fill="#070707" transform="translate(967,335)"/>
<path d="M0,0 L1,2 L-6,10 L-11,15 L-16,20 L-43,47 L-48,52 L-53,58 L-56,56 Z " fill="#202E3D" transform="translate(611,136)"/>
<path d="M0,0 L2,0 L2,26 L39,26 L39,42 L37,42 L37,29 L0,28 Z " fill="#070707" transform="translate(887,559)"/>
<path d="M0,0 L2,1 L-2,5 L-7,12 L-12,15 L-14,19 L-18,19 L-19,23 L-30,33 L-32,35 L-34,39 L-35,39 L-35,33 L-6,4 L-4,4 L-3,1 Z " fill="#CDAF49" transform="translate(35,484)"/>
<path d="M0,0 L19,0 L34,4 L34,22 L31,22 L30,8 L21,5 L12,3 L-4,2 Z " fill="#0A0A0A" transform="translate(524,538)"/>
<path d="M0,0 L1,2 L-4,13 L-7,20 L-14,20 L-14,18 L-18,22 L-22,28 L-26,26 Z " fill="#1C1B1A" transform="translate(183,564)"/>
<path d="M0,0 L59,0 L59,15 L57,15 L56,3 L1,2 Z " fill="#040404" transform="translate(870,540)"/>
<path d="M0,0 L2,1 L2,10 L-1,20 L-4,28 L-7,33 L-9,33 L-9,26 L-2,5 Z " fill="#1B1C19" transform="translate(184,359)"/>
<path d="M0,0 L1,3 L-6,11 L-9,11 L-10,15 L-14,19 L-16,19 L-18,23 L-23,28 L-25,28 L-25,30 L-27,30 L-27,32 L-35,39 L-38,42 L-41,41 L-37,39 L-35,35 L-7,7 L-5,7 L-3,3 Z " fill="#449E98" transform="translate(336,181)"/>
<path d="M0,0 L0,3 L-33,36 L-35,34 L-31,30 L-30,26 L-33,25 L-29,25 L-23,24 L-22,19 L-16,16 L-12,10 L-12,6 L-5,4 L-3,2 Z " fill="#CDBF4D" transform="translate(246,499)"/>
<path d="M0,0 L1,0 L0,87 L-1,87 L-2,17 L-3,15 L-5,16 L-4,9 Z " fill="#3C3C3C" transform="translate(199,563)"/>
<path d="M0,0 L2,0 L2,2 L4,2 L10,18 L11,23 L5,23 L-1,7 L-1,1 Z " fill="#0C0E08" transform="translate(229,421)"/>
<path d="M0,0 L3,1 L-1,6 L-6,9 L-10,15 L-17,22 L-17,24 L-21,26 L-26,29 L-32,37 L-37,38 L-31,31 Z " fill="#ACB152" transform="translate(70,447)"/>
<path d="M0,0 L3,0 L3,2 L13,5 L23,8 L32,9 L32,10 L27,11 L11,11 L2,7 L0,4 Z " fill="#141514" transform="translate(350,625)"/>
<path d="M0,0 L6,0 L6,1 L1,1 L1,76 L-1,82 L-3,82 L-4,88 L-8,91 L-8,86 L-5,85 L-4,80 L-2,77 L-1,71 Z " fill="#90CD81" transform="translate(313,339)"/>
<path d="M0,0 L1,0 L0,88 L-1,88 L-2,14 L-6,20 L-7,18 Z " fill="#3D3E3E" transform="translate(653,359)"/>
<path d="M0,0 L1,4 L-2,4 L-4,8 L-10,15 L-21,24 L-23,28 L-28,32 L-34,39 L-37,37 Z " fill="#1C353A" transform="translate(550,197)"/>
<path d="M0,0 L1,0 L1,72 L25,72 L25,74 L22,75 L15,75 L15,73 L0,73 Z " fill="#0F0F0F" transform="translate(779,559)"/>
<path d="M0,0 L4,0 L1,11 L-3,23 L-7,23 L-6,13 L-2,2 Z " fill="#3A3B33" transform="translate(164,421)"/>
<path d="M0,0 L43,0 L42,4 L42,1 L29,2 L3,2 L2,8 L-1,9 L-4,13 L-3,7 Z " fill="#3D3E3E" transform="translate(714,420)"/>
<path d="M0,0 L0,3 L-4,5 L-5,8 L-13,15 L-20,23 L-28,30 L-34,37 L-36,36 L-32,30 L-25,23 L-21,20 L-21,17 L-19,17 L-19,14 L-17,14 L-16,12 L-15,13 L-10,8 L-6,6 L-1,1 Z " fill="#DE6B41" transform="translate(51,695)"/>
<path d="M0,0 L3,0 L1,4 L-24,29 L-25,27 L-22,22 L-22,20 L-20,20 L-19,17 L-16,16 L-14,15 L-12,11 L-10,12 L-9,7 L-4,4 L0,2 Z " fill="#44AAB2" transform="translate(552,191)"/>
<path d="M0,0 L19,0 L19,70 L18,70 L18,1 L13,2 L13,3 L0,3 Z " fill="#0E0E0E" transform="translate(312,539)"/>
<path d="M0,0 L2,0 L5,13 L5,31 L3,36 L2,36 L1,18 L-1,7 Z " fill="#090909" transform="translate(1042,571)"/>
<path d="M0,0 L9,3 L16,5 L33,6 L27,13 L17,23 L17,20 L25,12 L22,10 L22,7 L19,8 L5,5 L1,3 Z " fill="#B4CB60" transform="translate(265,443)"/>
<path d="M0,0 L5,1 L7,10 L6,14 L4,5 L3,4 L-22,3 L-22,5 L-2,5 L-2,6 L-23,6 L-24,2 L-23,1 Z " fill="#9F8746" transform="translate(129,537)"/>
<path d="M0,0 L3,1 L-5,10 L-13,17 L-20,24 L-25,29 L-28,28 L-12,12 L-10,12 L-8,8 Z " fill="#4E69CF" transform="translate(517,0)"/>
<path d="M0,0 L1,4 L-2,13 L-6,15 L-21,30 L-24,28 L-20,26 L-18,19 L-12,17 L-8,15 L-6,11 L-2,5 Z " fill="#F0B047" transform="translate(187,552)"/>
<path d="M0,0 L1,0 L1,15 L31,15 L31,30 L30,30 L30,17 L27,18 L12,18 L0,17 Z " fill="#9FD598" transform="translate(346,340)"/>
<path d="M0,0 L26,0 L26,49 L25,49 L25,1 L0,2 L-2,9 L-3,5 L-2,1 Z " fill="#B3B4B3" transform="translate(191,543)"/>
<path d="M0,0 L3,1 L7,12 L9,16 L8,19 L2,17 L-1,7 L-1,1 Z " fill="#070807" transform="translate(781,426)"/>
<path d="M0,0 L3,2 L-20,25 L-21,21 L-15,16 L-12,13 L-11,5 L-8,5 L-9,8 L-6,8 L-4,4 Z " fill="#43B69F" transform="translate(521,222)"/>
<path d="M0,0 L0,3 L-3,8 L-7,10 L-14,18 L-19,23 L-26,29 L-31,34 L-33,33 L-29,31 L-27,27 L-15,15 L-13,15 L-11,11 Z " fill="#8CAC58" transform="translate(132,385)"/>
<path d="M0,0 L1,4 L-4,18 L-7,21 L-9,21 L-9,15 L-6,9 L-3,1 Z " fill="#141414" transform="translate(193,585)"/>
<path d="M0,0 L2,1 L-23,26 L-25,24 L-21,19 L-19,19 L-17,14 L-12,12 L-11,6 L-9,7 L-10,9 L-8,9 L-7,5 Z " fill="#409EC1" transform="translate(589,156)"/>
<path d="M0,0 L1,2 L-4,7 L-13,15 L-23,23 L-25,22 L-20,17 L-14,12 L-7,4 L-4,1 Z " fill="#1A191E" transform="translate(699,51)"/>
<path d="M0,0 L2,1 L-6,10 L-11,15 L-18,22 L-26,29 L-28,30 L-27,26 L-25,23 L-23,23 L-23,21 L-19,21 L-18,17 L-15,17 L-15,15 L-12,13 L-12,10 L-6,7 L-3,2 Z " fill="#5C6CE3" transform="translate(726,19)"/>
<path d="M0,0 L1,3 L-3,12 L-6,10 L-8,14 L-15,20 L-20,25 L-23,24 L-1,2 Z " fill="#6EA656" transform="translate(172,344)"/>
<path d="M0,0 L16,0 L20,2 L20,4 L22,5 L13,4 L-8,3 L-6,1 Z " fill="#0E0E0E" transform="translate(967,335)"/>
<path d="M0,0 L2,1 L-9,13 L-17,19 L-15,13 L-12,12 L-10,8 L-3,1 Z M-18,19 Z " fill="#4A78D8" transform="translate(465,54)"/>
<path d="M0,0 L0,3 Z M-3,3 L-1,4 L-9,11 L-14,16 L-20,23 L-21,25 L-23,24 L-22,20 L-16,15 L-11,7 L-9,5 Z " fill="#4696BD" transform="translate(401,120)"/>
<path d="M0,0 L1,0 L1,7 L-4,17 L-5,21 L-7,21 L-8,26 L-10,26 L-8,16 L-5,9 L-3,9 L-2,6 L0,6 L-1,1 Z " fill="#0C0C0C" transform="translate(632,418)"/>
<path d="M0,0 L30,0 L30,15 L28,15 L27,3 L0,1 Z " fill="#030403" transform="translate(901,632)"/>
<path d="M0,0 L5,1 L3,5 L-8,5 L-8,7 L11,7 L11,8 L-14,8 L-14,6 L-12,6 L-11,4 L-2,3 Z " fill="#A49450" transform="translate(206,535)"/>
<path d="M0,0 L2,0 L2,2 L6,0 L6,2 L8,2 L7,5 L5,5 L-1,10 L-1,8 L-3,8 L-3,10 L-5,10 L-6,13 L-7,8 L-2,6 Z " fill="#E78946" transform="translate(94,644)"/>
<path d="M0,0 L1,4 L4,3 L1,14 L26,14 L26,15 L0,15 L-1,11 L-3,11 Z " fill="#3A462C" transform="translate(174,388)"/>
<path d="M0,0 L23,2 L23,4 L21,5 L4,5 L4,3 L0,2 Z " fill="#090808" transform="translate(978,630)"/>
<path d="M0,0 L3,0 L3,17 L-1,17 L-1,1 Z " fill="#060606" transform="translate(555,626)"/>
<path d="M0,0 L1,3 L27,2 L29,5 L-2,5 Z " fill="#050506" transform="translate(722,400)"/>
<path d="M0,0 L1,2 L-3,8 L-13,18 L-19,20 L-13,13 L-7,7 L-5,7 L-3,3 Z " fill="#3E75C8" transform="translate(448,69)"/>
<path d="M0,0 L4,1 L-1,6 L-14,19 L-15,16 L-10,11 L-4,4 Z " fill="#111F29" transform="translate(442,71)"/>
<path d="M0,0 L2,1 L-1,1 Z M-4,2 L-1,3 L-10,13 L-20,21 L-22,20 Z " fill="#392F19" transform="translate(242,507)"/>
<path d="M0,0 L3,0 L1,4 L-8,13 L-10,13 L-11,10 L-11,3 L-7,5 L-1,3 Z " fill="#E2A64F" transform="translate(162,581)"/>
<path d="M0,0 L3,3 L2,12 L2,34 L1,48 L0,48 Z " fill="#76B462" transform="translate(272,337)"/>
<path d="M0,0 L2,1 L-4,6 L-6,9 L-11,13 L-12,16 L-15,16 L-14,11 L-4,1 Z " fill="#46A3AE" transform="translate(352,168)"/>
<path d="M0,0 L1,3 L-10,14 L-12,14 L-12,9 L-9,8 L-7,4 L-3,2 Z " fill="#68392A" transform="translate(12,734)"/>
<path d="M0,0 L25,0 L25,1 L16,2 L16,3 L-4,3 L-4,1 Z " fill="#0E0D0D" transform="translate(379,538)"/>
<path d="M0,0 L2,1 L-17,20 L-18,16 L-16,14 L-13,14 L-12,10 L-9,10 L-8,6 L-6,3 L-1,1 Z " fill="#4CBF8A" transform="translate(474,271)"/>
<path d="M0,0 L4,0 L4,2 L-3,5 L-21,5 L-19,3 L-2,1 Z " fill="#0E0E0E" transform="translate(989,427)"/>
<path d="M0,0 L2,3 L0,7 L-6,9 L-7,12 L-11,16 L-15,15 L-11,13 L-9,9 Z " fill="#58AF6E" transform="translate(226,291)"/>
<path d="M0,0 L20,0 L18,6 L15,9 L15,3 L0,2 Z " fill="#080708" transform="translate(684,540)"/>
<path d="M0,0 L2,1 L-2,5 L-7,12 L-12,13 L-11,9 L-6,4 L-4,4 L-3,1 Z " fill="#B8AE4F" transform="translate(35,484)"/>
<path d="M0,0 L1,3 L-6,11 L-14,18 L-17,17 L-8,9 L-1,1 Z " fill="#4DAC70" transform="translate(244,273)"/>
<path d="M0,0 L2,0 L2,18 L-1,18 L-2,2 Z " fill="#090808" transform="translate(999,423)"/>
<path d="M0,0 L4,0 L1,11 L0,14 L-4,13 L-1,1 Z " fill="#12140C" transform="translate(164,421)"/>
<path d="M0,0 L2,0 L-1,10 L-2,15 L-4,15 L-4,25 L-5,25 L-5,8 L-3,4 L-1,4 Z " fill="#0F0F0F" transform="translate(941,372)"/>
<path d="M0,0 L12,0 L12,2 L5,4 L-3,4 L-10,3 L-11,1 L0,1 Z " fill="#3C4233" transform="translate(290,430)"/>
<path d="M0,0 L1,0 L1,9 L-1,15 L-3,15 L-4,21 L-8,24 L-8,19 L-5,18 L-4,13 L-2,10 Z " fill="#B1CE85" transform="translate(313,406)"/>
<path d="M0,0 L1,3 L-7,11 L-12,16 L-17,18 L-11,11 Z " fill="#47A488" transform="translate(286,231)"/>
<path d="M0,0 L1,4 L1,8 L-2,17 L-6,19 L-4,10 Z " fill="#252625" transform="translate(699,543)"/>
<path d="M0,0 L2,1 L-8,11 L-9,9 L-13,11 L-12,7 L-10,7 L-9,4 L-9,6 Z M-14,11 Z " fill="#3F97D0" transform="translate(605,140)"/>
<path d="M0,0 L18,0 L19,3 L-4,2 Z " fill="#080808" transform="translate(988,538)"/>
<path d="M0,0 L2,1 L-15,18 L-17,18 L-17,12 L-15,13 L-13,11 L-10,11 L-10,9 L-2,2 Z " fill="#8EC868" transform="translate(355,390)"/>
<path d="M0,0 L4,1 L-15,20 L-15,17 L-10,12 L-8,9 L-3,5 L-2,2 L0,2 Z " fill="#7EC264" transform="translate(373,370)"/>
<path d="M0,0 L1,0 L-1,25 L-3,22 L-3,10 L-2,2 Z " fill="#080707" transform="translate(963,580)"/>
<path d="M0,0 L20,0 L25,2 L25,3 L17,2 L3,2 L-4,4 L-6,5 L-8,3 L-5,1 Z " fill="#5B5C5C" transform="translate(378,556)"/>
<path d="M0,0 L9,3 L16,5 L30,6 L30,7 L19,8 L5,5 L1,3 Z " fill="#C9D991" transform="translate(265,443)"/>
<path d="M0,0 L1,0 L1,8 L-4,14 L-6,14 L-5,7 Z " fill="#070607" transform="translate(651,372)"/>
<path d="M0,0 L3,1 L-1,6 L-9,13 L-13,16 L-12,12 L-6,5 L-3,2 L0,2 Z " fill="#132332" transform="translate(396,118)"/>
<path d="M0,0 L3,4 L8,18 L7,22 L3,14 L0,4 Z " fill="#D9AB4D" transform="translate(135,543)"/>
<path d="M0,0 L0,3 L-7,11 L-12,13 L-12,10 L-10,10 L-8,6 L-3,1 Z " fill="#9DB45D" transform="translate(101,418)"/>
<path d="M0,0 L5,0 L-1,7 L-7,12 L-8,8 L-2,3 L0,3 Z " fill="#565CD8" transform="translate(743,0)"/>
<path d="M0,0 L3,1 L-3,8 L-11,14 L-14,14 L-13,11 L-11,11 L-9,7 L-3,5 Z " fill="#ED7A3F" transform="translate(63,681)"/>
<path d="M0,0 L0,3 L-7,11 L-11,17 L-15,15 Z " fill="#413121" transform="translate(172,575)"/>
<path d="M0,0 L2,1 L-15,18 L-15,15 L-15,13 L-11,12 L-11,10 L-7,6 L-3,2 Z " fill="#4ABD96" transform="translate(498,247)"/>
<path d="M0,0 L1,2 L-1,5 L-3,5 L-5,10 L-10,15 L-14,14 L-12,14 L-10,10 L-4,4 L-2,4 Z " fill="#478FB6" transform="translate(407,110)"/>
<path d="M0,0 L1,4 L0,12 L-2,19 L-4,17 L-6,18 L-3,9 Z " fill="#282828" transform="translate(691,565)"/>
<path d="M0,0 L2,0 L0,4 L-9,13 L-11,14 L-12,17 L-18,19 L-12,12 L-4,5 Z " fill="#222741" transform="translate(718,29)"/>
<path d="M0,0 L6,0 L0,7 L-6,12 L-4,7 L-3,3 L-1,3 Z " fill="#42B0A7" transform="translate(533,208)"/>
<path d="M0,0 L25,0 L25,1 L0,2 L-2,9 L-3,5 L-2,1 Z " fill="#E0DED8" transform="translate(191,543)"/>
<path d="M0,0 L3,2 L-11,16 L-13,14 L-9,10 L-6,7 L-4,7 L-4,5 L-2,3 L-2,1 Z " fill="#4DC07E" transform="translate(448,295)"/>
<path d="M0,0 L0,3 L-12,15 L-15,14 L-3,2 Z " fill="#252643" transform="translate(739,9)"/>
<path d="M0,0 L1,4 L-1,9 L1,10 L-3,14 L-16,13 L-16,12 L-3,12 L-1,2 Z " fill="#505050" transform="translate(623,435)"/>
<path d="M0,0 L2,1 L2,10 L0,14 L-1,11 L-3,11 L-2,5 Z " fill="#272824" transform="translate(184,359)"/>
<path d="M0,0 L10,0 L12,4 L13,14 L11,13 L8,4 L8,2 L0,2 Z " fill="#6DAD60" transform="translate(193,335)"/>
<path d="M0,0 L13,0 L12,3 L8,4 L-4,4 L-4,3 L4,2 Z " fill="#2E2F2E" transform="translate(373,633)"/>
<path d="M0,0 L1,4 L-2,13 L-8,15 L-6,11 L-2,5 Z " fill="#E9C76F" transform="translate(187,552)"/>
<path d="M0,0 L0,3 L-3,7 L-5,7 L-6,10 L-8,11 L-9,14 L-14,15 L-8,8 Z " fill="#3A7FA0" transform="translate(387,130)"/>
<path d="M0,0 L2,1 L-5,9 L-9,12 L-11,11 L-3,2 Z " fill="#2D201E" transform="translate(61,687)"/>
<path d="M0,0 L1,2 L-4,13 L-6,10 L-7,10 L-10,10 Z " fill="#473D30" transform="translate(183,564)"/>
<path d="M0,0 L17,1 L15,2 L14,4 L0,3 Z " fill="#0B0A0A" transform="translate(438,539)"/>
<path d="M0,0 L3,0 L4,2 L8,0 L2,7 L-1,10 L-3,9 L-1,7 Z " fill="#B4C24E" transform="translate(269,470)"/>
<path d="M0,0 L1,4 L-3,13 L-6,14 L-4,5 L-2,5 L-1,1 Z " fill="#070706" transform="translate(642,394)"/>
<path d="M0,0 L3,1 L1,10 L-2,10 L-4,12 L-3,6 Z " fill="#2E2E2D" transform="translate(183,604)"/>
<path d="M0,0 L23,1 L23,2 L-4,3 L-4,1 Z " fill="#353535" transform="translate(957,337)"/>
<path d="M0,0 L1,2 L-4,7 L-9,12 L-14,17 L-16,16 L-8,7 Z " fill="#2B446D" transform="translate(634,113)"/>
<path d="M0,0 L1,4 L-3,6 L-9,13 L-12,12 Z " fill="#1F2942" transform="translate(647,100)"/>
<path d="M0,0 L1,0 L1,14 L0,17 L-2,17 L-1,3 Z " fill="#050506" transform="translate(850,593)"/>
<path d="M0,0 L3,3 L7,13 L6,16 L2,10 L0,4 Z " fill="#91B75C" transform="translate(230,413)"/>
<path d="M0,0 L2,2 L-9,13 L-11,9 L-6,7 L-6,5 L-3,4 Z " fill="#567BED" transform="translate(696,48)"/>
<path d="M0,0 L1,4 L1,10 L-3,17 L-5,17 L-2,7 Z " fill="#4B4B4A" transform="translate(1041,610)"/>
<path d="M0,0 L2,3 L-1,8 L-5,8 L-9,10 L-3,3 Z " fill="#BCA947" transform="translate(22,495)"/>
<path d="M0,0 L2,1 L4,6 L5,9 L9,10 L9,12 L12,13 L6,12 L0,5 Z " fill="#9CBF63" transform="translate(275,414)"/>
<path d="M0,0 L1,4 L0,7 L2,7 L1,12 L-1,10 L-5,17 L-6,15 L-2,5 Z " fill="#454848" transform="translate(637,400)"/>
<path d="M0,0 L2,1 L-5,8 L-11,13 L-9,7 L-4,2 Z " fill="#498BD6" transform="translate(432,87)"/>
<path d="M0,0 L2,1 L-5,9 L-10,12 L-10,10 L-8,10 L-8,8 L-6,8 L-5,4 Z " fill="#406FCC" transform="translate(657,88)"/>
<path d="M0,0 L1,4 L-1,8 L1,9 L-1,13 L-3,13 L-4,16 L-6,16 L-3,7 Z " fill="#393A39" transform="translate(174,626)"/>
<path d="M0,0 L18,1 L18,2 L-6,3 L-4,1 Z " fill="#141313" transform="translate(981,539)"/>
<path d="M0,0 L0,3 L-6,11 L-11,12 L-5,5 Z " fill="#AAA74D" transform="translate(44,473)"/>
<path d="M0,0 L1,3 L-8,12 L-11,11 L-7,9 L-5,5 Z " fill="#439E8C" transform="translate(306,211)"/>
<path d="M0,0 L3,1 L6,8 L4,11 L-3,11 L-3,10 L3,10 Z " fill="#849D50" transform="translate(237,434)"/>
<path d="M0,0 L5,0 L3,5 L-2,5 L-5,5 Z M-1,5 Z " fill="#202633" transform="translate(617,130)"/>
<path d="M0,0 L1,3 L-2,4 L-4,8 L-7,9 L-7,12 L-11,11 L-8,8 L-6,8 L-4,4 Z " fill="#242A4A" transform="translate(673,74)"/>
<path d="M0,0 L1,3 L-11,14 L-13,13 Z " fill="#444726" transform="translate(287,460)"/>
<path d="M0,0 L4,1 L-4,9 L-6,7 L-5,4 L-1,2 Z " fill="#41A5BC" transform="translate(561,182)"/>
<path d="M0,0 L3,1 L-7,11 L-8,8 Z " fill="#172631" transform="translate(378,136)"/>
<path d="M0,0 L4,1 L-4,9 L-5,5 L-2,2 Z " fill="#4387E2" transform="translate(632,111)"/>
<path d="M0,0 L1,4 L-1,4 L-1,6 L-6,10 L-9,9 Z " fill="#33271E" transform="translate(136,611)"/>
<path d="M0,0 L3,1 L2,4 L0,5 L-1,8 L1,8 L2,6 L1,11 L-1,10 L-4,13 L-2,4 Z " fill="#303031" transform="translate(729,374)"/>
<path d="M0,0 L2,1 L1,3 L-1,3 L-3,7 L-6,8 L-5,3 Z M-7,8 Z " fill="#4699B8" transform="translate(375,144)"/>
<path d="M0,0 L2,1 L-8,11 L-9,8 L-5,3 L-2,3 L-2,1 Z " fill="#4392D7" transform="translate(619,126)"/>
<path d="M0,0 L0,3 L-3,8 L-5,10 L-9,9 L-7,9 L-5,5 Z " fill="#3C7FB8" transform="translate(422,95)"/>
<path d="M0,0 L4,2 L4,4 L6,5 L2,9 L0,9 L1,5 Z " fill="#BFC656" transform="translate(254,483)"/>
<path d="M0,0 L1,2 L-2,10 L-5,10 L-4,4 Z " fill="#0A0A0A" transform="translate(460,369)"/>
<path d="M0,0 L1,3 L-3,12 L-5,11 L-5,6 Z " fill="#81B467" transform="translate(172,344)"/>
<path d="M0,0 L0,3 L-7,10 L-11,11 L-5,4 Z " fill="#232742" transform="translate(685,63)"/>
<path d="M0,0 L1,4 L-7,10 L-9,9 Z " fill="#252A4B" transform="translate(695,52)"/>
<path d="M0,0 L3,1 L-3,8 L-5,9 L-4,4 L-2,4 Z " fill="#E16648" transform="translate(5,738)"/>
<path d="M0,0 L1,3 L-2,7 L-4,7 L-5,10 L-8,8 Z " fill="#3B221D" transform="translate(25,722)"/>
<path d="M0,0 L1,4 L0,9 L-4,9 L-4,5 L-2,5 L-1,1 Z " fill="#09090A" transform="translate(172,637)"/>
<path d="M0,0 L2,0 L1,18 L0,18 L-1,4 Z " fill="#0C090B" transform="translate(494,579)"/>
<path d="M0,0 L2,0 L0,4 L-7,10 L-7,7 Z " fill="#C4C4C4" transform="translate(959,551)"/>
<path d="M0,0 L10,1 L10,3 L14,4 L5,4 L0,1 Z " fill="#7D9A4D" transform="translate(281,426)"/>
<path d="M0,0 L0,3 Z M-3,3 L-1,4 L-7,9 L-8,5 Z M-9,9 Z M-12,10 L-9,11 L-11,13 Z " fill="#499DCD" transform="translate(401,120)"/>
<path d="M0,0 L4,2 L6,8 L6,14 L4,10 L0,2 Z " fill="#B98E3F" transform="translate(140,561)"/>
<path d="M0,0 L6,0 L6,2 L9,3 L4,9 L3,5 L5,1 L0,2 Z " fill="#859A56" transform="translate(163,420)"/>
<path d="M0,0 L1,3 L-2,9 L-5,9 L-4,4 Z " fill="#459EA2" transform="translate(342,175)"/>
<path d="M0,0 L0,3 L-3,8 L-9,10 L-3,3 Z " fill="#3A73BB" transform="translate(438,79)"/>
<path d="M0,0 L4,1 L-4,9 L-5,6 L-2,2 L0,2 Z " fill="#6079ED" transform="translate(703,40)"/>
<path d="M0,0 L1,2 L-3,7 L2,6 L2,8 L-7,8 L-1,1 Z " fill="#60A65D" transform="translate(188,329)"/>
<path d="M0,0 L2,1 L1,10 L-1,8 L-3,11 L-2,6 Z " fill="#2A2A2A" transform="translate(675,610)"/>
<path d="M0,0 L1,4 L-3,12 L-4,9 L-2,2 Z " fill="#090A09" transform="translate(695,560)"/>
<path d="M0,0 L3,1 L-2,7 L-4,6 L-2,2 Z M-7,6 L-4,8 L-7,8 Z " fill="#CEC152" transform="translate(30,489)"/>
<path d="M0,0 L1,3 L-6,10 L-7,7 Z " fill="#272316" transform="translate(39,475)"/>
<path d="M0,0 L2,0 L2,3 L-6,9 L-5,5 Z " fill="#272A17" transform="translate(89,425)"/>
<path d="M0,0 L1,3 L-6,10 L-7,6 L-4,6 L-2,2 Z " fill="#212216" transform="translate(111,403)"/>
<path d="M0,0 L0,3 L-3,8 L-9,10 L-3,3 Z " fill="#7DA250" transform="translate(132,385)"/>
<path d="M0,0 L1,0 L1,8 L-2,9 L-3,13 L-4,11 Z " fill="#6A6B6C" transform="translate(653,359)"/>
<path d="M0,0 L2,3 L-3,8 L-7,7 L-3,5 L-1,1 Z " fill="#52A465" transform="translate(218,299)"/>
<path d="M0,0 L3,1 L3,4 L-2,4 L-2,13 L-3,13 L-3,3 Z " fill="#E9C05A" transform="translate(103,538)"/>
<path d="M0,0 L0,3 L-6,10 L-9,9 Z " fill="#404429" transform="translate(297,450)"/>
<path d="M0,0 L1,0 L1,5 L-1,9 L-3,9 L-3,3 Z " fill="#0F0F0E" transform="translate(710,436)"/>
<path d="M0,0 L4,4 L6,9 L5,13 L0,2 Z " fill="#81AE59" transform="translate(224,399)"/>
<path d="M0,0 L1,4 L0,6 L2,6 L0,12 L-3,13 Z " fill="#262626" transform="translate(645,380)"/>
<path d="M0,0 L1,0 L1,7 L-1,10 L-3,5 L-2,1 Z " fill="#0E110B" transform="translate(183,369)"/>
<path d="M0,0 L1,2 L-4,14 L-5,11 L-1,1 Z " fill="#A2D086" transform="translate(167,359)"/>
<path d="M0,0 L0,3 L-5,9 L-9,10 L-3,3 Z " fill="#264139" transform="translate(496,251)"/>
<path d="M0,0 L1,2 L-3,7 L-9,8 L-4,4 Z " fill="#505152" transform="translate(409,638)"/>
<path d="M0,0 L1,4 L2,7 L0,10 L0,8 L-2,8 L-3,11 L-2,6 Z " fill="#353636" transform="translate(667,632)"/>
<path d="M0,0 L3,4 L3,6 L1,6 L0,9 L-3,9 Z " fill="#2C2D2E" transform="translate(413,629)"/>
<path d="M0,0 L3,1 L-4,8 L-5,4 Z " fill="#EAB451" transform="translate(177,567)"/>
<path d="M0,0 L3,1 L-3,8 L-5,9 L-4,5 Z " fill="#2A2516" transform="translate(51,462)"/>
<path d="M0,0 L2,4 L-3,9 L-3,5 Z " fill="#313232" transform="translate(528,424)"/>
<path d="M0,0 L3,3 L2,12 L0,11 Z " fill="#7BC273" transform="translate(272,337)"/>
<path d="M0,0 L3,2 L-2,7 L-4,8 L-3,4 Z " fill="#15242C" transform="translate(415,98)"/>
<path d="M0,0 L2,1 L-6,9 L-7,6 L-6,4 L-3,4 L-3,2 Z " fill="#4F60C4" transform="translate(714,32)"/>
<path d="M0,0 L2,1 L-2,7 L-6,8 L-4,4 Z " fill="#444445" transform="translate(504,564)"/>
<path d="M0,0 L3,4 L5,10 L2,10 L0,4 Z " fill="#DFB853" transform="translate(135,543)"/>
<path d="M0,0 L1,3 L-2,11 L-4,10 L-1,1 Z " fill="#A3CD6D" transform="translate(180,390)"/>
<path d="M0,0 L1,0 L0,7 L-3,10 L-2,4 Z M-4,10 Z " fill="#050505" transform="translate(726,388)"/>
<path d="M0,0 L4,0 L5,10 L3,6 L2,3 L0,5 Z " fill="#CFD0C8" transform="translate(183,357)"/>
<path d="M0,0 L2,1 L-6,8 L-8,6 L-3,2 Z " fill="#D2623F" transform="translate(31,715)"/>
<path d="M0,0 L2,4 L-1,9 L-3,8 Z " fill="#2E3030" transform="translate(320,631)"/>
<path d="M0,0 L1,0 L1,5 L-1,5 L-2,8 L-3,7 L-3,2 Z " fill="#0C0C0B" transform="translate(324,628)"/>
<path d="M0,0 L2,4 L0,8 L-1,6 L-3,7 L-1,1 Z " fill="#303131" transform="translate(688,576)"/>
<path d="M0,0 L3,0 L5,9 L4,13 L2,4 Z " fill="#B59748" transform="translate(131,538)"/>
<path d="M0,0 Z M-3,1 L0,2 L-5,7 L-8,6 Z " fill="#79AD5C" transform="translate(157,362)"/>
<path d="M0,0 L2,2 L1,4 L2,9 L-2,8 L-1,1 Z " fill="#4BB8A7" transform="translate(511,226)"/>
<path d="M0,0 L1,2 L-1,5 L-3,5 L-4,8 L-8,9 L-4,4 L-2,4 Z " fill="#3D82AA" transform="translate(407,110)"/>
<path d="M0,0 L3,1 L-4,8 L-5,5 L-3,3 Z " fill="#4583E6" transform="translate(644,100)"/>
<path d="M0,0 L3,1 L-4,9 L-4,6 Z M-6,9 Z " fill="#5A73E2" transform="translate(517,0)"/>
<path d="M0,0 L2,1 L-1,1 Z M-4,2 L-1,3 L-4,7 L-7,7 L-5,3 Z " fill="#2C251A" transform="translate(242,507)"/>
<path d="M0,0 L1,3 L-3,7 L-6,6 Z " fill="#3D3D21" transform="translate(259,488)"/>
<path d="M0,0 L3,1 L-2,7 L-3,4 Z " fill="#172430" transform="translate(430,83)"/>
<path d="M0,0 L2,0 L3,3 L-3,6 L-3,3 L-1,3 Z " fill="#A5B961" transform="translate(92,425)"/>
<path d="M0,0 L2,3 L2,6 L-2,9 L-1,2 Z " fill="#383A39" transform="translate(630,418)"/>
<path d="M0,0 L3,2 L-2,3 L-2,5 L-5,5 L-4,2 Z " fill="#313132" transform="translate(949,340)"/>
<path d="M0,0 Z M-4,1 L0,2 L-5,6 L-7,4 Z " fill="#1B2E2C" transform="translate(520,230)"/>
<path d="M0,0 L1,4 L-4,8 L-6,7 Z " fill="#22273E" transform="translate(661,86)"/>
<path d="M0,0 L3,1 L-4,7 L-3,3 Z " fill="#192230" transform="translate(471,43)"/>
<path d="M0,0 L3,1 L-3,8 L-3,5 Z " fill="#C76737" transform="translate(63,681)"/>
<path d="M0,0 L1,2 L-2,9 L-3,5 L-2,1 Z " fill="#E8C65C" transform="translate(191,543)"/>
<path d="M0,0 L3,1 L-2,7 L-3,3 L0,3 Z " fill="#2A2518" transform="translate(19,494)"/>
<path d="M0,0 L2,4 L3,10 L0,9 Z " fill="#8CB069" transform="translate(186,363)"/>
<path d="M0,0 L0,3 L-4,8 L-7,7 Z " fill="#419A7B" transform="translate(268,249)"/>
<path d="M0,0 L1,2 L-4,7 L-7,7 Z " fill="#242F4A" transform="translate(634,113)"/>
<path d="M0,0 L1,4 L-4,7 L-6,6 Z " fill="#25334B" transform="translate(647,100)"/>
<path d="M0,0 L0,3 L-5,8 L-7,7 Z " fill="#475DB9" transform="translate(514,3)"/>
</svg>
